<?xml version="1.0" encoding="utf-8"?>
<!-- Generator: Adobe Illustrator 19.0.0, SVG Export Plug-In . SVG Version: 6.00 Build 0)  -->
<svg xmlns="http://www.w3.org/2000/svg" xmlns:xlink="http://www.w3.org/1999/xlink" version="1.1" id="Layer_1" x="0px" y="0px" viewBox="0 2 98 98" style="enable-background:new 0 2 98 98;" xml:space="preserve" width="512" height="512">
<style type="text/css">
	.st0{fill:url(#SVGID_1_);}
</style>
<linearGradient id="SVGID_1_" gradientUnits="userSpaceOnUse" x1="49" y1="9.0999" x2="49" y2="92.9001">
	<stop offset="0" style="stop-color:#00EFD1"/>
	<stop offset="1" style="stop-color:#00ACEA"/>
</linearGradient>
<path class="st0" d="M53.1,51l17.6-19.3c0.6-0.6,0.8-1.4,0.8-2.2c-0.1-0.8-0.5-1.6-1.1-2.1L49,9.8c-0.9-0.7-2.1-0.9-3.2-0.4  c-1,0.5-1.7,1.6-1.7,2.7v29L31.8,27.7c-1.1-1.2-3-1.3-4.2-0.2c-1.2,1.1-1.3,3-0.2,4.2L44,50V52L27.3,70.3c-1.1,1.2-1,3.1,0.2,4.2  c1.2,1.1,3.1,1,4.2-0.2L44,60.9v29c0,1.2,0.7,2.2,1.7,2.7c0.4,0.2,0.8,0.3,1.3,0.3c0.7,0,1.4-0.2,1.9-0.7l21.4-17.6  c0.6-0.5,1-1.3,1.1-2.1c0.1-0.8-0.2-1.6-0.8-2.2L53.1,51z M50,18.5L64.1,30L50,45.4V18.5z M50,83.5v-27L64.1,72L50,83.5z"/>
</svg>
